<svg data-v-423bf9ae="" xmlns="http://www.w3.org/2000/svg" viewBox="0 0 314 90" class="iconLeft"><!----><!----><!----><g data-v-423bf9ae="" id="c10f5619-a11a-438c-be8f-1f07afd8fdcd" fill="#22255B" transform="matrix(5.423728942871094,0,0,5.423728942871094,101.93518829345703,-1.6949163675308228)"><path d="M10.08 3.78L6.26 9.63L2.45 3.78L1.48 3.78L1.48 14L2.49 14L2.49 5.57L5.98 10.82L6.59 10.82L10.04 5.52L10.04 14L11.05 14L11.05 3.78ZM16.84 6.58C14.80 6.58 13.22 8.19 13.22 10.33C13.22 12.50 14.76 14.14 16.86 14.14C18.52 14.14 19.78 13.06 20.02 11.76L19.03 11.76C18.82 12.66 17.96 13.23 16.86 13.23C15.41 13.23 14.35 12.15 14.24 10.63L20.06 10.63L20.16 10.54C20.34 8.41 18.86 6.58 16.84 6.58ZM14.28 9.74C14.53 8.39 15.60 7.48 16.83 7.48C18.12 7.48 19.01 8.48 19.15 9.76ZM27.82 3.08L27.82 7.66C27.17 6.94 26.29 6.58 25.21 6.58C23.17 6.58 21.53 8.20 21.53 10.33C21.53 12.52 23.16 14.14 25.23 14.14C26.42 14.14 27.31 13.69 27.96 12.87L28.15 14L28.83 14L28.83 3.08ZM25.26 13.23C23.83 13.23 22.60 11.97 22.60 10.33C22.60 8.72 23.83 7.49 25.26 7.49C26.46 7.49 27.31 8.11 27.79 9.03L27.79 11.68C27.30 12.63 26.47 13.23 25.26 13.23ZM39.09 3.78L37.88 3.78L34.76 8.01L31.71 3.78L30.45 3.78L34.06 8.81L30.13 14L31.37 14L34.65 9.62L37.80 14L39.06 14L35.32 8.81Z"></path></g><defs data-v-423bf9ae=""><linearGradient data-v-423bf9ae="" gradientTransform="rotate(25)" id="5aac8d4b-347f-4bd4-88f7-5a8097984f97" x1="0%" y1="0%" x2="100%" y2="0%"><stop data-v-423bf9ae="" offset="0%" style="stop-color: rgb(81, 6, 255); stop-opacity: 1;"></stop><stop data-v-423bf9ae="" offset="100%" style="stop-color: rgb(97, 203, 242); stop-opacity: 1;"></stop></linearGradient></defs><g data-v-423bf9ae="" id="e00a86a9-b359-47fa-8301-cc933cb58c9c" transform="matrix(1.5,0,0,1.5,0.015625,0)" stroke="none" fill="url(#5aac8d4b-347f-4bd4-88f7-5a8097984f97)"><path d="M53.487 44.271a7.384 7.384 0 0 0-3.428-.127c-.357.069-.712-.005-.967-.212l-1.411-1.131c-.398-.319-.522-.88-.301-1.365.401-.881.733-1.803.986-2.739.247-.912 1.266-1.494 2.119-1.167a7 7 0 0 0 5.726-.309c3.236-1.668 4.665-5.734 3.185-9.063A7.012 7.012 0 0 0 52.994 24a6.95 6.95 0 0 0-2.933.647 6.179 6.179 0 0 0-1.04.636 1.764 1.764 0 0 1-2.585-.514c-.575-.961-1.265-1.82-1.961-2.684a2.58 2.58 0 0 1-.278-2.795l1.479-2.87c.421-.818 1.177-1.373 1.974-1.452a6.893 6.893 0 0 0 2.183-.598c2.248-1.028 3.824-3.132 4.112-5.489a7.036 7.036 0 0 0-1.701-5.518C50.68 1.595 48.289.732 45.93 1.08c-2.959.44-5.36 2.81-5.836 5.763a7.03 7.03 0 0 0 .494 3.964c.359.82.36 1.688.003 2.382l-1.158 2.249c-.583 1.13-1.941 1.736-3.104 1.374-1.058-.331-2.824-.554-4.119-.684a.855.855 0 0 1-.747-.651l-1.139-4.804c-.062-.265.017-.55.218-.783a5.962 5.962 0 0 0 1.347-5.056C31.439 2.5 29.583.61 27.271.131A6.297 6.297 0 0 0 26 0c-3.309 0-6 2.691-6 6a6.007 6.007 0 0 0 3.908 5.605c.328.122.555.352.621.632l.912 3.852a.862.862 0 0 1-.563 1.001 17.9 17.9 0 0 0-3.821 1.919c-.435.289-1.078.28-1.46-.03-.516-.418-.491-1.052-.313-1.469.743-1.744.911-3.667.486-5.563-.768-3.412-3.595-6.139-7.035-6.784-3.27-.613-6.586.583-8.67 3.101-1.716 2.073-2.409 4.803-1.898 7.491.682 3.592 3.561 6.442 7.165 7.094a9.16 9.16 0 0 0 4.482-.298c.429-.145.941.026 1.242.401l.4.497c.312.389.347.92.088 1.353a17.783 17.783 0 0 0-2.392 6.977 1.11 1.11 0 0 1-.997.987l-1.983.173c-.297 0-.602-.138-.86-.391a5.414 5.414 0 0 0-3.462-1.539c-2.218-.138-4.322 1.079-5.276 3.036a5.535 5.535 0 0 0-.069 4.754 5.482 5.482 0 0 0 3.616 3.024c2.28.591 4.784-.424 6.026-2.42.179-.288.532-.481.942-.518l1.728-.151c.479 0 .903.317 1.054.787a17.889 17.889 0 0 0 3.273 5.953c.166.199.155.5-.026.7-.207.229-.447.192-.641.132a6.466 6.466 0 0 0-2.609-.276c-2.973.282-5.417 2.631-5.809 5.584a6.532 6.532 0 0 0 1.55 5.167c1.513 1.729 3.868 2.536 6.165 2.097 2.318-.443 4.257-2.199 4.943-4.477a6.484 6.484 0 0 0 .162-3.141.517.517 0 0 1 .132-.443l.785-.872a.546.546 0 0 1 .641-.127c.516.282 1.055.541 1.599.77.664.279 1.062 1.003.991 1.799a7.073 7.073 0 0 0 .128 2.083c.616 2.925 3.126 5.184 6.104 5.492.249.025.497.038.741.038 3.86 0 7-3.141 7-7 0-.438-.042-.879-.124-1.313-.157-.814.168-1.577.828-1.943a18.081 18.081 0 0 0 2.923-2.021c.322-.274.706-.398.998-.324.45.114.672.378.778.579.151.285.17.628.055.943a7.596 7.596 0 0 0-.35 3.871c.538 3.18 3.148 5.704 6.348 6.138a7.52 7.52 0 0 0 6.6-2.391 7.44 7.44 0 0 0 1.908-5.785c-.297-3.061-2.498-5.666-5.477-6.483zM50 30a1 1 0 1 1 0 2 1 1 0 0 1 0-2zm-11-9a1 1 0 1 1 0 2 1 1 0 0 1 0-2zm-5 4a1 1 0 1 1 0 2 1 1 0 0 1 0-2zM23 39a1 1 0 1 1 0-2 1 1 0 0 1 0 2zm1-6c-2.206 0-4-1.794-4-4s1.794-4 4-4 4 1.794 4 4-1.794 4-4 4zm8 16c-3.309 0-6-2.692-6-6 0-3.309 2.691-6 6-6s6 2.691 6 6c0 3.308-2.691 6-6 6zm11-7a1 1 0 1 1 0-2 1 1 0 0 1 0 2zm-2-6c-2.206 0-4-1.794-4-4s1.794-4 4-4 4 1.794 4 4-1.794 4-4 4z" fill-rule="evenodd"></path></g><!----></svg>